# xmcd
#
# Track frame offsets:
#	150
#	17250
#	32660
#	44095
#	61587
#	78763
#	96768
#	118448
#	134238
#	147525
#	162101
#	181113
#	197134
#	214311
#	230978
#	245439
#	262673
#	276716
#	290050
#	306781
#	323182
#
# Disc length: 4538 seconds
#
# Revision: 1
# Processed by: cddbd v1.5.2PL0 Copyright (c) Steve Scherf et al.
# Submitted via: audiograbber 1.83.01
#
DISCID=4211b815
DTITLE=Various Artist - Now! Country 4
DYEAR=2010
DGENRE=Country
TTITLE0=Keith Urban - Kiss A Girl
TTITLE1=Blake Shelton - All About Tonight
TTITLE2=Gord Bamford - Day Job
TTITLE3=Lady Antebellum - Our Kind Of Love
TTITLE4=Zac Brown Band - Free
TTITLE5=Johnny Reid - Today I'm Gonna Try And Change The World
TTITLE6=Miranda Lambert - White Liar
TTITLE7=Darius Rucker - Histrory In The Making
TTITLE8=Luke Bryan - Rain Is A Good Thing
TTITLE9=Little Big Town - Little White Church
TTITLE10=Uncle Kracker - Good To Be Me
TTITLE11=Dierks Bentley - Up On The Ridge
TTITLE12=Terri Clark Featuring Johnny Reid - You Tell Me
TTITLE13=Tim Mcgraw - Still
TTITLE14=Eric Church - Smoke A Little Smoke
TTITLE15=Emerson Drive - Belongs To You
TTITLE16=One More Girl -  The Day I Fall
TTITLE17=Doc Walker - I'm Gonna Make You Love Me
TTITLE18=Shane Yellowbird - Watching You Walk Away
TTITLE19=Deric Ruttan - Up All Night
TTITLE20=Kevin Costner and Modern West - Turn It On
EXTD=
EXTT0=
EXTT1=
EXTT2=
EXTT3=
EXTT4=
EXTT5=
EXTT6=
EXTT7=
EXTT8=
EXTT9=
EXTT10=
EXTT11=
EXTT12=
EXTT13=
EXTT14=
EXTT15=
EXTT16=
EXTT17=
EXTT18=
EXTT19=
EXTT20=
PLAYORDER=
